# xmcd CD database file
#
# Track frame offsets:
#	150
#	27424
#	49715
#	80024
#	106940
#	130098
#	158416
#
# Disc length: 2475 seconds
#
# Revision: 3
# Processed by: cddbd v1.5.1PL0 Copyright (c) Steve Scherf et al.
# Submitted via: CDex 1.51
#
DISCID=4c09a907
DTITLE=???? - ??????
DYEAR=2004
DGENRE=New Age
TTITLE0=??????
TTITLE1=??
TTITLE2=????
TTITLE3=??? (silent version)
TTITLE4=?????? (acoustic mix)
TTITLE5=?? (Jazztronik remix)
TTITLE6=?????? (instrumental)
EXTD=YEAR: 2004
EXTT0=
EXTT1=
EXTT2=
EXTT3=
EXTT4=
EXTT5=
EXTT6=
PLAYORDER=
